<svg xmlns="http://www.w3.org/2000/svg" xmlns:xlink="http://www.w3.org/1999/xlink" width="19" height="15" viewBox="0 0 19 15"><defs><path id="9vs2a" d="M785.003 5526.78a7.95 7.95 0 0 1-2.24.596 3.816 3.816 0 0 0 1.715-2.094 7.954 7.954 0 0 1-2.476.919 3.95 3.95 0 0 0-2.846-1.195c-2.154 0-3.9 1.694-3.9 3.784 0 .296.035.585.102.862a11.184 11.184 0 0 1-8.037-3.954 3.684 3.684 0 0 0-.528 1.902c0 1.314.688 2.472 1.734 3.151a3.974 3.974 0 0 1-1.766-.474v.048c0 1.834 1.344 3.362 3.128 3.71a3.975 3.975 0 0 1-1.761.065c.496 1.504 1.936 2.598 3.642 2.628a7.972 7.972 0 0 1-4.842 1.62c-.315 0-.625-.018-.93-.052a11.28 11.28 0 0 0 5.977 1.7c7.172 0 11.093-5.767 11.093-10.767 0-.164-.003-.328-.01-.49a7.777 7.777 0 0 0 1.945-1.96z"/></defs><g><g transform="translate(-766 -5525)"><use fill="#fff" xlink:href="#9vs2a"/></g></g></svg>