<svg xmlns="http://www.w3.org/2000/svg" xmlns:xlink="http://www.w3.org/1999/xlink" width="18" height="18" viewBox="0 0 18 18"><defs><path id="br8sa" d="M620.003 5526.478v11.046a3.483 3.483 0 0 1-3.48 3.479h-11.046a3.483 3.483 0 0 1-3.48-3.479v-11.046c0-1.919 1.561-3.48 3.48-3.48h11.046c1.919 0 3.48 1.561 3.48 3.48zm-5.01-1.458l.01 2.988 3.01-.009v-2.99l-.394.002zm-7.005 6.98a3.016 3.016 0 0 0 3.012 3.013 3.017 3.017 0 0 0 3.012-3.012c0-.668-.516-3.013-3.012-3.013-2.497 0-3.012 2.345-3.012 3.013zm10.042-2.003h-2.47c.232.57.363 1.35.363 2.004a4.929 4.929 0 0 1-4.923 4.923 4.929 4.929 0 0 1-4.923-4.923c0-.654.13-1.434.362-2.004h-2.5v7.308c0 .951.774 1.725 1.726 1.725h10.64c.95 0 1.725-.774 1.725-1.725z"/></defs><g><g transform="translate(-602 -5523)"><use fill="#fff" xlink:href="#br8sa"/></g></g></svg>