<svg xmlns="http://www.w3.org/2000/svg" xmlns:xlink="http://www.w3.org/1999/xlink" width="16" height="20" viewBox="0 0 16 20"><defs><path id="myroa" d="M721.484 5523.007c-5.637 0-8.479 3.913-8.479 7.177 0 1.975.772 3.733 2.43 4.388.271.108.515.003.593-.288.055-.2.185-.71.243-.922.08-.288.049-.388-.17-.64-.479-.545-.784-1.251-.784-2.253 0-2.903 2.244-5.502 5.841-5.502 3.186 0 4.937 1.886 4.937 4.402 0 3.313-1.514 6.109-3.761 6.109-1.242 0-2.17-.993-1.873-2.213.357-1.455 1.047-3.026 1.047-4.077 0-.94-.521-1.725-1.6-1.725-1.268 0-2.288 1.272-2.288 2.975 0 1.084.379 1.817.379 1.817l-1.526 6.26c-.454 1.859-.069 4.136-.036 4.366.02.136.2.169.282.066.117-.148 1.628-1.955 2.142-3.76.146-.511.834-3.158.834-3.158.413.762 1.617 1.432 2.899 1.432 3.814 0 6.401-3.366 6.401-7.873 0-3.408-2.98-6.581-7.51-6.581z"/></defs><g><g transform="translate(-713 -5523)"><use fill="#fff" xlink:href="#myroa"/></g></g></svg>