<svg xmlns="http://www.w3.org/2000/svg" xmlns:xlink="http://www.w3.org/1999/xlink" width="32" height="32" viewBox="0 0 32 32"><defs><path id="o0saa" d="M512.928 3245.04c0-8.5 6.676-15.474 15.07-15.972a4.84 4.84 0 0 1 .68-.026l.282-.003c8.84 0 16.033 7.178 16.033 16 0 8.823-7.192 16.002-16.033 16.002-.094 0-.188 0-.282-.002a4.894 4.894 0 0 1-.68-.026c-8.394-.498-15.07-7.473-15.07-15.973zm1.996 0c0 1.818.35 3.556.983 5.152.55-.16 1.934-.509 4.379-.795a30.155 30.155 0 0 1-.31-4.357c0-1.195.067-2.355.194-3.469-3.094-.37-4.447-.835-4.538-.867l.382-1.076a13.909 13.909 0 0 0-1.09 5.412zm8.455 12.854c-1.195-1.666-2.142-3.91-2.73-6.53-1.985.228-3.23.495-3.857.654a14.117 14.117 0 0 0 6.587 5.876zm0-25.708a14.113 14.113 0 0 0-7.009 6.664c.302.093 1.567.452 4.096.75.564-3 1.586-5.563 2.914-7.414zm19.618 12.854c0-1.468-.228-2.883-.65-4.214-.387.106-1.843.468-4.546.767a24.87 24.87 0 0 1 .238 3.447c0 1.507-.134 2.96-.38 4.334 2.327.251 3.757.552 4.398.707.607-1.565.94-3.265.94-5.041zm-9.244 13.168a14.107 14.107 0 0 0 7.427-6.28c-.727-.156-2.03-.392-3.959-.593-.758 2.801-1.99 5.174-3.468 6.873zm0-26.336c1.63 1.874 2.96 4.568 3.687 7.752 2.26-.245 3.62-.533 4.164-.664a14.105 14.105 0 0 0-7.852-7.088zm-11.78 13.168c0 1.44.115 2.84.328 4.16a80.583 80.583 0 0 1 5.693-.24v-6.938a80.07 80.07 0 0 1-5.82-.25 26.456 26.456 0 0 0-.202 3.268zm13.727 4.154a25.564 25.564 0 0 0 .132-7.416 85.412 85.412 0 0 1-5.842.244v6.939a85.87 85.87 0 0 1 5.71.233zm-.416 1.97a84.067 84.067 0 0 0-5.294-.211v7.93c2.263-.717 4.257-3.705 5.294-7.72zm-12.58.005c1.02 4.068 3.001 7.08 5.29 7.743v-7.96c-2.062.02-3.816.103-5.29.217zm-.204-11.369c1.512.12 3.332.209 5.494.23v-8.861c-2.453.71-4.553 4.118-5.494 8.631zm12.993.003c-.959-4.458-3.077-7.837-5.503-8.606v8.832a83.452 83.452 0 0 0 5.503-.226z"/></defs><g><g transform="translate(-513 -3229)"><use fill="#e2574c" xlink:href="#o0saa"/></g></g></svg>