<svg xmlns="http://www.w3.org/2000/svg" xmlns:xlink="http://www.w3.org/1999/xlink" width="95" height="84" viewBox="0 0 95 84"><defs><path id="6bqna" d="M30.895 149V65h93.21v84zm64.133-5.012c2.386 0 5.315-1.651 6.508-3.668l17.548-29.667c1.193-2.016 1.193-5.317 0-7.334l-17.547-29.666c-1.194-2.017-4.123-3.667-6.51-3.667H59.934c-2.386 0-5.315 1.65-6.508 3.667L35.878 103.32c-1.194 2.017-1.194 5.318 0 7.334l17.547 29.667c1.193 2.017 4.122 3.668 6.508 3.668z"/><path id="6bqnb" d="M59.933 143.988c-2.386 0-5.315-1.651-6.508-3.668l-17.547-29.667c-1.194-2.016-1.194-5.317 0-7.334l17.547-29.666c1.193-2.017 4.122-3.667 6.508-3.667h35.095c2.386 0 5.315 1.65 6.508 3.667l17.548 29.666c1.193 2.017 1.193 5.318 0 7.334l-17.547 29.667c-1.194 2.017-4.123 3.668-6.51 3.668z"/><path id="6bqne" d="M86.596 98.991c-.892-4.286-4.571-6.704-8.753-6.704-4.348 0-7.303 2.089-7.303 5.165 0 3.682 4.906 4.891 9.924 6.43 5.574 1.757 12.543 4.45 12.543 11.648 0 6.65-5.854 11.486-14.55 11.486-8.307 0-13.77-4.727-15.442-11.43l.04-.012a3 3 0 0 1 5.78-1.558l.089-.024c.724 4.011 4.125 7.583 9.756 7.583 4.961 0 7.86-2.528 7.86-5.824 0-4.781-6.02-5.77-11.54-7.583-4.571-1.539-10.759-3.682-10.759-10.386 0-5.99 5.853-10.77 13.881-10.77 7.247 0 12.934 4.23 14.383 10.386l-.243.066a3 3 0 0 1-5.388 1.452z"/><linearGradient id="6bqnc" x1="119.98" x2="34.98" y1="76.99" y2="136.99" gradientUnits="userSpaceOnUse"><stop offset="0" stop-color="#f8f8f8" stop-opacity=".2"/><stop offset="1" stop-color="#f8f8f8" stop-opacity="0"/></linearGradient><clipPath id="6bqnd"><use fill="#fff" xlink:href="#6bqna"/></clipPath></defs><g><g transform="translate(-30 -65)"><g><use fill="#e2574c" xlink:href="#6bqnb"/><use fill="url(#6bqnc)" xlink:href="#6bqnb"/><use fill="#fff" fill-opacity="0" stroke="#fff" stroke-linecap="round" stroke-linejoin="round" stroke-miterlimit="50" stroke-width="10" clip-path="url(&quot;#6bqnd&quot;)" xlink:href="#6bqnb"/></g><g><use fill="#fff" xlink:href="#6bqne"/></g></g></g></svg>