<svg xmlns="http://www.w3.org/2000/svg" xmlns:xlink="http://www.w3.org/1999/xlink" width="32" height="32" viewBox="0 0 32 32"><defs><path id="91kma" d="M200.058 7438.737a.788.788 0 0 1-.14.435c-1.26 1.736-3.072 3.566-3.779 3.818-3.738-.173-8.996-3.46-14.823-9.268-5.826-5.809-9.123-11.057-9.299-14.797.263-.703 2.098-2.498 3.855-3.763.217-.15.391-.163.471-.15.566.822 3.666 5.478 4.147 6.24a.208.208 0 0 1 0 .027c0 .062-.013.292-.19.628-.221.418-.953 1.706-1.563 2.771l-.63 1.1.73 1.035c.54.768 1.83 2.436 4.399 4.996 2.557 2.549 4.236 3.84 5.009 4.382l1.039.728 1.102-.627c1.417-.807 2.43-1.374 2.778-1.556.326-.17.554-.201.644-.2.855.547 5.426 3.558 6.243 4.119a.464.464 0 0 1 .007.082s0-.149 0 0zm1.938 0c0-.67-.258-1.286-.736-1.63-.506-.365-5.822-3.9-6.437-4.29-.653-.413-1.62-.356-2.589.154-.514.269-2.075 1.154-2.839 1.588-.677-.474-2.27-1.693-4.745-4.16-2.493-2.485-3.704-4.06-4.177-4.732.437-.761 1.325-2.318 1.597-2.833.278-.527.42-1.068.42-1.555a1.92 1.92 0 0 0-.26-1.011c-.401-.655-3.963-5.996-4.307-6.484-.564-.802-1.954-1.123-3.216-.243-.046.033-4.693 3.391-4.693 5.302v.044c.175 5.457 5.474 11.844 9.888 16.245 4.414 4.4 10.82 9.681 16.271 9.855 1.94.062 5.29-4.63 5.324-4.677a2.77 2.77 0 0 0 .499-1.573z"/></defs><g><g transform="translate(-170 -7413)"><use fill="#e2574c" xlink:href="#91kma"/></g></g></svg>