<svg xmlns="http://www.w3.org/2000/svg" xmlns:xlink="http://www.w3.org/1999/xlink" width="32" height="22" viewBox="0 0 32 22"><defs><path id="dqqpa" d="M454.5 7273.016c-.276 0-.653-.013-.96.044l13.46 10.726 13.514-10.77h-.014zm-1.5 16.5c0 .552.949 1.5 1.5 1.5h26c.552 0 .5-.948.5-1.5v-14.327l-13.345 10.676a.996.996 0 0 1-1.31 0L453 7275.19zm27.5-18.5c1.369 0 2.182.575 2.424 1.71.068.163.09.34.068.513.005.09.008.182.008.277v16c0 1.657-.843 3.5-2.5 3.5h-26c-1.657 0-3.5-1.843-3.5-3.5v-16c0-.083.005-.164.014-.243a.999.999 0 0 1 .373-.954c.628-.865 1.919-1.303 3.113-1.303z"/></defs><g><g transform="translate(-451 -7271)"><use fill="#e2574c" xlink:href="#dqqpa"/></g></g></svg>