<svg xmlns="http://www.w3.org/2000/svg" xmlns:xlink="http://www.w3.org/1999/xlink" width="32" height="32" viewBox="0 0 32 32"><defs><path id="4xg7a" d="M470.008 7444.986c-9.089 0-9.159-.377-10.284-1.225-.598-.45-1.724-.76-5.839-1.028-.298-.02-.582-.135-.773-.366-.087-.106-2.143-3.104-2.143-7.907 0-4.732 1.472-6.89 1.535-6.99a1 1 0 0 1 .847-.47c3.379 0 8.062-4.313 11.21-11.84.545-1.303.658-2.16 2.658-2.16 1.137 0 2.413.815 3.043 1.86 1.29 2.134.635 6.72.028 9.171 2.062-.016 5.796-.045 7.572-.045 2.472 0 4.107 1.474 4.156 3.628.017.712-.077 1.619-.283 2.089.544.543 1.246 1.36 1.277 2.414.038 1.36-.853 2.396-1.421 2.99.13.395.391.92.366 1.546-.063 1.542-1.253 2.536-1.995 3.055.061.422.11 1.217-.026 1.833-.535 2.457-4.137 3.445-9.928 3.445zm-15.592-4.282c3.584.297 5.5.699 6.51 1.46.783.587.662.821 9.082.821 2.568 0 7.59-.107 7.975-1.87.153-.705-.59-1.398-.592-1.403a1.015 1.015 0 0 1 .518-1.306c.008-.004 2.004-.72 2.05-1.835.03-.713-.46-1.142-.472-1.16-.29-.452-.184-1.072.257-1.38.005-.004 1.299-.788 1.268-1.857-.025-.849-1.144-1.447-1.178-1.465a1.015 1.015 0 0 1-.488-.674c-.057-.283.006-.58.182-.809 0 0 .508-.808.49-1.565-.037-1.623-1.782-1.675-2.156-1.675-2.522 0-9 .026-9 .026a.987.987 0 0 1-.84-.442c-.188-.28-.202-.627-.092-.945.977-2.814 1.523-7.228.617-8.735-.267-.445-.328-.89-1.328-.89-.139 0-.469.11-.812.93-3.344 7.995-8.335 12.62-12.422 13.037-.353.805-1.016 2.47-1.016 5.493 0 3.085.977 5.473 1.447 6.244z"/></defs><g><g transform="translate(-451 -7413)"><use fill="#e2574c" xlink:href="#4xg7a"/></g></g></svg>