<svg xmlns="http://www.w3.org/2000/svg" xmlns:xlink="http://www.w3.org/1999/xlink" width="32" height="32" viewBox="0 0 32 32"><defs><path id="ylz4a" d="M172 7263.71v23.502l8 3.258v-23.805zm28 26.603v-23.307l-8-3.45v23.745zm-18-23.652v23.825l8-3.162v-23.797zm19.037-1.442c.53.149.963.721.963 1.27v25.65c0 .46-.304.764-.714.764a.938.938 0 0 1-.249-.035l-10.032-3.942-9.969 4.047-10.073-3.974c-.53-.147-.963-.719-.963-1.268v-25.937c0-.461.304-.768.714-.766.08 0 .163.01.249.035l10.061 3.95 9.983-3.952z"/></defs><g><g transform="translate(-170 -7261)"><use fill="#e2574c" xlink:href="#ylz4a"/></g></g></svg>